<svg fill="none" height="898" viewBox="0 0 1200 898" width="1200" xmlns="http://www.w3.org/2000/svg"><rect fill="#ffffff" height="898" rx="20" width="1200"/><path d="M565 341.792C565 332.796 554.31 324.316 535.413 316.866 491.952 299.73 405.079 288.041 305 288.041 204.92 288.041 118.048 299.73 74.5867 316.866 55.6898 324.316 45 332.796 45 341.792" stroke="#3e5fff" stroke-width="7"/><path d="M488.848 137.944C482.486 131.583 468.931 133.146 450.301 141.24 407.453 159.855 337.759 213.017 266.992 283.784 196.225 354.551 143.063 424.245 124.447 467.093 116.354 485.724 114.791 499.279 121.152 505.64" stroke="#3e5fff" stroke-width="7"/><path d="M488.848 505.64C495.209 499.278 493.646 485.723 485.552 467.093 466.937 424.245 413.775 354.551 343.008 283.784 272.241 213.017 202.547 159.855 159.699 141.239 141.069 133.146 127.513 131.583 121.152 137.944" stroke="#3e5fff" stroke-width="7"/><circle cx="305" cy="321.792" fill="#e2f1ff" r="200.908"/><path clip-rule="evenodd" d="M215.616 165.121 255.373 130.99C256.847 129.724 257.601 128.108 257.755 126.471 243.133 129.995 229.135 135.119 215.955 141.646 216.949 144.58 215.859 147.828 213.276 149.565L208.817 152.564C207.811 153.24 206.627 153.601 205.415 153.601H204.102C201.46 153.601 199.318 155.743 199.318 158.384 199.318 160.119 200.258 161.718 201.774 162.563L207.783 165.911C210.302 167.314 213.428 166.999 215.616 165.121ZM104.108 324.326C104.098 323.482 104.092 322.638 104.092 321.792 104.092 261.392 130.746 207.217 172.934 170.387 174.214 171.907 174.824 173.961 174.446 176.05L172.906 184.576C172.198 188.49 174.946 192.187 178.898 192.638L195.657 194.549C199.134 194.945 201.76 197.887 201.76 201.387V202.073C201.76 204.413 200.571 206.593 198.603 207.86L167.108 228.135C163.261 230.611 162.856 236.082 166.297 239.097L184.431 254.991C188.507 258.564 194.922 256.241 195.766 250.887L197.693 238.648C198.08 236.188 199.766 234.13 202.101 233.265L207.156 231.393C210.304 230.227 213.833 231.502 215.509 234.41L235.928 269.843C237.913 273.287 236.576 277.691 233.011 279.451L201.046 295.229C199.31 296.086 198.015 297.634 197.479 299.494L194.636 309.362C194.116 311.164 192.884 312.677 191.224 313.549L180.946 318.949C179.208 319.863 177.942 321.475 177.468 323.381L176.083 328.95C174.542 335.148 166.123 336.086 163.255 330.38L161.903 327.688C160.457 324.811 157.209 323.321 154.084 324.102L138.641 327.963C134.934 328.89 132.692 332.659 133.647 336.359L136.499 347.412C137.466 351.159 141.332 353.373 145.054 352.31L150.231 350.83C153.341 349.942 156.35 352.512 155.958 355.723 155.676 358.037 157.201 360.186 159.479 360.684L160.387 360.883C162.538 361.354 164.205 363.052 164.637 365.21L165.111 367.581C165.532 369.684 166.909 371.47 168.835 372.413L175.996 375.917C177.43 376.619 179.062 376.8 180.614 376.431L200.741 371.642C202.676 371.182 204.717 371.581 206.335 372.738L240.722 397.311C241.027 397.529 241.349 397.722 241.685 397.887L268.611 411.133C271.693 412.649 273.185 416.205 272.108 419.466L265.291 440.112C264.921 441.233 264.269 442.239 263.398 443.035L244.481 460.317C243.702 461.029 243.097 461.911 242.713 462.894L237.13 477.186C236.834 477.944 236.406 478.643 235.866 479.251L215.791 501.858C208.48 498.229 201.422 494.168 194.649 489.708L198.05 453.926C198.223 452.105 197.664 450.29 196.496 448.882L166.097 412.224C163.934 409.615 163.992 405.819 166.234 403.277L173.227 395.353C175.904 392.318 175.398 387.639 172.133 385.248L156.097 373.5C155.674 373.19 155.217 372.93 154.735 372.724L126.701 360.744C125.279 360.136 124.104 359.067 123.363 357.709L105.8 325.493C105.403 324.765 104.767 324.399 104.108 324.326ZM452.246 185.107C485.545 220.963 505.908 269 505.908 321.792 505.908 335.767 504.481 349.409 501.765 362.58L497.541 354.052C497.297 353.56 496.995 353.099 496.642 352.679L488.857 343.417C487.549 341.862 485.621 340.963 483.589 340.963H479.86C479.236 340.963 478.615 340.879 478.015 340.711L457.96 335.13C455.773 334.521 454.053 337.023 455.404 338.848 455.772 339.344 456.318 339.678 456.927 339.78L464.458 341.041C466.528 341.388 468.327 342.66 469.344 344.497L469.448 344.685C471.009 347.507 470.402 351.034 467.987 353.171L457.853 362.139C457.228 362.692 456.508 363.127 455.728 363.422L448.813 366.04C446.144 367.05 443.128 366.309 441.232 364.176L427.614 348.855C426.981 348.143 425.902 348.051 425.158 348.646 424.519 349.157 424.307 350.036 424.644 350.781L432.416 367.992C433.636 370.693 436.449 372.31 439.397 372.005L449.955 370.913C453.176 370.58 455.977 373.107 455.977 376.345 455.977 377.474 455.627 378.576 454.975 379.498L435.495 407.039C434.816 407.999 434.394 409.116 434.27 410.286L430.645 444.393C430.485 445.899 429.833 447.31 428.789 448.408L401.387 477.224C400.088 478.59 398.285 479.363 396.4 479.363H389.314C386.737 479.363 384.375 477.923 383.195 475.632L370.789 451.537C370.287 450.563 370.026 449.483 370.026 448.387V409.582C370.026 408.867 369.914 408.156 369.695 407.475L366.014 396.029C365.46 394.305 364.249 392.869 362.643 392.033L355.424 388.271C354.512 387.796 353.506 387.532 352.479 387.497L321.202 386.425C318.403 386.329 315.942 384.547 314.977 381.918L308.63 364.619C308.066 363.082 308.068 361.393 308.637 359.857L320.277 328.446C320.854 326.891 321.972 325.597 323.426 324.801L342.329 314.452C343.039 314.063 343.813 313.802 344.614 313.682L361.19 311.198C363.638 310.831 366.093 311.807 367.622 313.753L373.499 321.234C374.804 322.895 376.799 323.865 378.911 323.865H390.871C391.239 323.865 391.606 323.895 391.969 323.953L408.616 326.644C409.746 326.826 410.904 326.724 411.985 326.346L416.908 324.625C419.689 323.653 421.034 320.502 419.813 317.821 418.851 315.709 416.563 314.534 414.286 314.984L408.752 316.076C405.799 316.659 402.853 315.043 401.756 312.241 400.452 308.908 402.223 305.165 405.627 304.059L412.892 301.699C413.852 301.387 414.87 301.29 415.872 301.415L421.58 302.129C425.231 302.586 428.595 300.09 429.217 296.463L429.279 296.101C429.904 292.455 427.536 288.967 423.916 288.204L412.13 285.718C407.401 284.721 403.144 288.781 403.917 293.552L404.155 295.027C404.628 297.947 402.806 300.748 399.945 301.498 398.298 301.931 396.928 303.072 396.205 304.613L394.49 308.268C393.993 309.329 393.111 310.16 392.024 310.595 389.755 311.503 387.172 310.486 386.13 308.275L378.045 291.11C377.493 289.939 376.188 289.324 374.934 289.643 373.315 290.056 372.454 291.823 373.128 293.352L374.141 295.652C374.263 295.928 374.41 296.192 374.581 296.441L379.887 304.158C381.375 306.322 380.561 309.305 378.181 310.414 376.052 311.406 373.522 310.482 372.534 308.352L370.436 303.83C370.164 303.243 369.81 302.698 369.386 302.209L363.379 295.304C361.284 292.896 357.808 292.244 354.983 293.729L351.098 295.772C349.229 296.755 348.476 299.042 349.394 300.942 350.291 302.798 349.596 305.032 347.804 306.051L337.019 312.182C334.816 313.435 332.101 313.375 329.955 312.026L328.15 310.891C326.405 309.794 325.243 307.973 324.985 305.928L324.599 302.876C324.325 300.711 325.094 298.545 326.672 297.037L327.974 295.793C328.775 295.028 329.749 294.467 330.813 294.159L335.645 292.758C338.563 291.913 340.155 288.772 339.111 285.919 338.329 283.782 339.015 281.384 340.809 279.984L355.08 268.839C356.73 267.551 357.694 265.574 357.694 263.48V260.521C357.694 259.583 358.256 258.736 359.119 258.371 360.011 257.994 361.043 258.206 361.714 258.905L364.594 261.908C365.419 262.768 366.454 263.4 367.597 263.74L372.819 265.294C374.383 265.76 376.062 265.654 377.556 264.996L381.571 263.228C383.503 262.377 384.937 260.686 385.462 258.641L386.067 256.287C386.508 254.568 387.596 253.087 389.103 252.151L392.351 250.135C392.921 249.781 393.341 249.229 393.529 248.584 393.827 247.56 393.5 246.456 392.692 245.759L388.475 242.126C387.403 241.203 386.877 239.796 387.08 238.396 387.476 235.664 385.139 233.317 382.406 233.702 380.501 233.971 379.033 235.516 378.861 237.432L377.547 252.122C377.287 255.034 374.938 257.319 372.02 257.5L371.744 257.518C369.53 257.655 367.45 256.449 366.469 254.46L365.467 252.428C364.69 250.852 362.791 250.195 361.206 250.953 359.868 251.593 358.265 251.231 357.331 250.079L355.132 247.368C353.37 245.194 353.099 242.17 354.447 239.718L370.539 210.451C371.059 209.506 371.794 208.696 372.685 208.087L385.157 199.557C387.302 198.091 390.089 197.957 392.365 199.211L413.135 210.661C414.167 211.23 414.808 212.316 414.808 213.494 414.808 214.889 413.914 216.127 412.59 216.565L406.004 218.745C404.123 219.368 403.319 221.586 404.364 223.269 405.113 224.478 406.596 225.011 407.943 224.558L414.754 222.268C417.057 221.494 418.608 219.336 418.608 216.906 418.608 215.631 419.039 214.393 419.832 213.393L421.548 211.227C422.672 209.808 424.31 208.89 426.106 208.67L442.177 206.704C443.569 206.534 444.876 205.942 445.923 205.008L449.418 201.89C451.475 200.054 452.238 197.168 451.358 194.556L450.243 191.249C449.478 188.98 450.296 186.484 452.246 185.107ZM431.664 165.835C433.528 167.351 435.364 168.899 437.172 170.479L434.435 178.091C433.925 179.511 433.895 181.059 434.35 182.497L436.118 188.079C436.63 189.695 435.74 191.421 434.126 191.941 432.633 192.423 431.017 191.705 430.372 190.275L428.004 185.024C427.603 184.135 427.396 183.17 427.396 182.195V173.819C427.396 172.33 427.879 170.881 428.772 169.69L431.664 165.835ZM197.272 352.704 173.912 345.346C172.459 344.889 170.899 345.632 170.34 347.049 169.719 348.622 170.568 350.39 172.184 350.889L195.585 358.115C197.099 358.583 198.702 357.718 199.143 356.196 199.571 354.717 198.741 353.167 197.272 352.704ZM203.764 190.772 215.371 197.927C217.513 199.247 218.764 201.632 218.633 204.145L217.778 220.491C217.572 224.427 220.708 227.732 224.65 227.732H232.858C236.827 227.732 239.973 224.384 239.727 220.423L238.356 198.376C238.251 196.672 237.516 195.069 236.294 193.877L219.056 177.056C217.067 175.116 214.107 174.561 211.55 175.651L204.676 178.583C199.541 180.772 199.012 187.842 203.764 190.772ZM194.715 175.84 195.283 174.113C196.374 170.792 194.335 167.26 190.913 166.545 187.76 165.886 184.666 167.895 183.985 171.044L183.6 172.822C182.905 176.04 185.041 179.187 188.289 179.729 191.097 180.197 193.827 178.545 194.715 175.84ZM258.954 173.648 245.19 161.49C241.826 158.518 242.162 153.173 245.871 150.645L273.332 131.93C274.325 131.254 275.479 130.849 276.677 130.756L307.933 128.337C311.257 128.08 314.287 130.242 315.125 133.469L317.751 143.578C318.108 144.952 318.031 146.402 317.532 147.731L309.201 169.886C308.952 170.548 308.807 171.243 308.77 171.949L307.369 198.759C307.266 200.729 306.323 202.56 304.779 203.787L266.91 233.894C263.731 236.421 259.066 235.66 256.855 232.254L253.537 227.143C252.813 226.027 252.428 224.725 252.428 223.395V207.597C252.428 206.857 252.547 206.122 252.781 205.42L260.927 180.982C261.8 178.363 261.023 175.476 258.954 173.648ZM306.078 226.23 312.46 225.65C313.935 225.516 315.236 224.628 315.898 223.303 317.32 220.459 315.252 217.113 312.072 217.113H309.026C308.737 217.113 308.448 217.092 308.162 217.05L306.336 216.783C302.935 216.285 300.144 219.447 301.061 222.76 301.674 224.977 303.786 226.439 306.078 226.23ZM330.409 249.375 335.424 258.639C336.559 260.736 336.452 263.287 335.146 265.281L333.714 267.466C333.226 268.211 333.207 269.169 333.665 269.933 334.23 270.873 335.376 271.291 336.413 270.933L340.351 269.575C345.272 267.878 346.6 261.543 342.775 258.012L340.458 255.873C339.714 255.186 339.131 254.343 338.75 253.405L336.036 246.72C335.305 244.92 333.125 244.22 331.483 245.259 330.099 246.135 329.629 247.934 330.409 249.375ZM327.683 264.892 330.193 262.842C331.511 261.766 331.716 259.828 330.653 258.5 329.484 257.039 327.299 256.937 325.999 258.281L323.747 260.61C322.618 261.777 322.661 263.641 323.842 264.755 324.906 265.758 326.55 265.817 327.683 264.892ZM362.017 158.396 362.184 158.699C364.241 162.42 369.146 163.405 372.479 160.766L373.162 160.226C374.16 159.436 374.919 158.385 375.356 157.189L378.307 149.1C378.98 147.256 378.073 145.21 376.255 144.469 375.261 144.064 374.14 144.117 373.189 144.614L364.854 148.966C361.429 150.755 360.147 155.013 362.017 158.396ZM443.689 433.058 441.017 434.572C438.705 435.882 437.354 438.405 437.545 441.055L438.384 452.681C438.518 454.534 440.061 455.969 441.919 455.969 443.193 455.969 444.37 455.284 445 454.176L452.173 441.551C453.248 439.658 453.257 437.341 452.196 435.44 450.512 432.424 446.695 431.354 443.689 433.058Z" fill="#c3dcf4" fill-rule="evenodd"/><path d="M74.5867 316.866C55.6898 324.316 45 332.796 45 341.792 45 371.478 161.406 395.544 305 395.544 448.594 395.544 565 371.478 565 341.792 565 332.796 554.31 324.316 535.413 316.866" stroke="#3e5fff" stroke-width="7"/><path d="M124.448 467.093C116.354 485.724 114.791 499.279 121.152 505.64 142.143 526.631 241.472 461.336 343.008 359.8 444.544 258.264 509.839 158.936 488.848 137.944 482.487 131.583 468.932 133.146 450.301 141.24" stroke="#3e5fff" stroke-width="7"/><path d="M159.699 141.24C141.069 133.146 127.514 131.583 121.152 137.944 100.161 158.936 165.456 258.264 266.992 359.8 368.528 461.337 467.857 526.631 488.848 505.64 495.209 499.279 493.646 485.724 485.553 467.093" stroke="#3e5fff" stroke-width="7"/><circle cx="150.22" cy="223.901" fill="#3e5fff" r="29.1099"/><path d="M150.22 223.901C153.895 223.901 156.874 220.922 156.874 217.247 156.874 213.572 153.895 210.593 150.22 210.593 146.545 210.593 143.566 213.572 143.566 217.247 143.566 220.922 146.545 223.901 150.22 223.901ZM150.22 212.257C152.972 212.257 155.21 214.495 155.21 217.247 155.21 219.998 152.972 222.237 150.22 222.237 147.468 222.237 145.23 219.997 145.23 217.247 145.23 214.495 147.47 212.257 150.22 212.257ZM152.856 226.396H147.585C142.611 226.396 138.576 230.43 138.576 235.404 138.576 236.399 139.383 237.206 140.378 237.206H160.063C161.058 237.208 161.864 236.402 161.864 235.404 161.864 230.43 157.83 226.396 152.856 226.396ZM160.06 235.545H140.378C140.302 235.545 140.24 235.482 140.24 235.404 140.24 231.355 143.535 228.059 147.585 228.059H152.85C156.905 228.059 160.201 231.355 160.201 235.404 160.201 235.482 160.138 235.545 160.06 235.545Z" fill="#ffffff"/><circle cx="433.5" cy="391.544" fill="#3e5fff" r="29.1099"/><path d="M433.499 391.544C437.175 391.544 440.153 388.565 440.153 384.89 440.153 381.215 437.175 378.236 433.499 378.236 429.824 378.236 426.846 381.215 426.846 384.89 426.846 388.565 429.824 391.544 433.499 391.544ZM433.499 379.9C436.251 379.9 438.49 382.138 438.49 384.89 438.49 387.641 436.251 389.88 433.499 389.88 430.748 389.88 428.509 387.64 428.509 384.89 428.509 382.138 430.75 379.9 433.499 379.9ZM436.135 394.039H430.864C425.89 394.039 421.856 398.073 421.856 403.047 421.856 404.042 422.662 404.85 423.657 404.85H443.343C444.338 404.851 445.143 404.045 445.143 403.047 445.143 398.073 441.11 394.039 436.135 394.039ZM443.34 403.188H423.657C423.581 403.188 423.519 403.125 423.519 403.047 423.519 398.998 426.815 395.702 430.864 395.702H436.13C440.184 395.702 443.48 398.998 443.48 403.047 443.48 403.125 443.418 403.188 443.34 403.188Z" fill="#ffffff"/><circle cx="465.719" cy="194.791" fill="#3e5fff" r="29.1099"/><path d="M465.719 194.791C469.394 194.791 472.373 191.812 472.373 188.137 472.373 184.463 469.394 181.483 465.719 181.483 462.044 181.483 459.066 184.463 459.066 188.137 459.066 191.812 462.044 194.791 465.719 194.791ZM465.719 183.147C468.471 183.147 470.709 185.385 470.709 188.137 470.709 190.889 468.471 193.127 465.719 193.127 462.967 193.127 460.729 190.887 460.729 188.137 460.729 185.385 462.969 183.147 465.719 183.147ZM468.355 197.286H463.084C458.11 197.286 454.075 201.32 454.075 206.294 454.075 207.289 454.882 208.097 455.877 208.097H475.562C476.557 208.098 477.363 207.292 477.363 206.294 477.363 201.32 473.329 197.286 468.355 197.286ZM475.559 206.435H455.877C455.801 206.435 455.739 206.372 455.739 206.294 455.739 202.245 459.034 198.949 463.084 198.949H468.349C472.404 198.949 475.7 202.245 475.7 206.294 475.7 206.372 475.637 206.435 475.559 206.435Z" fill="#ffffff"/><circle cx="190.974" cy="480.53" fill="#3e5fff" r="29.1099"/><path d="M190.974 480.53C194.649 480.53 197.628 477.551 197.628 473.876 197.628 470.202 194.649 467.223 190.974 467.223 187.299 467.223 184.32 470.202 184.32 473.876 184.32 477.551 187.299 480.53 190.974 480.53ZM190.974 468.886C193.726 468.886 195.964 471.125 195.964 473.876 195.964 476.628 193.726 478.867 190.974 478.867 188.222 478.867 185.984 476.626 185.984 473.876 185.984 471.125 188.224 468.886 190.974 468.886ZM193.61 483.025H188.339C183.364 483.025 179.33 487.059 179.33 492.034 179.33 493.029 180.137 493.836 181.132 493.836H200.817C201.812 493.838 202.618 493.032 202.618 492.034 202.618 487.059 198.584 483.025 193.61 483.025ZM200.814 492.174H181.132C181.056 492.174 180.994 492.112 180.994 492.034 180.994 487.984 184.289 484.689 188.339 484.689H193.604C197.659 484.689 200.955 487.984 200.955 492.034 200.955 492.112 200.892 492.174 200.814 492.174Z" fill="#ffffff"/><path d="M218.65 587.016V584.182H235.536V587.016H228.728V606H225.447V587.016H218.65ZM242.197 596.284V606H239.011V584.182H242.154V592.3H242.357C242.74 591.419 243.326 590.719 244.114 590.201 244.903 589.683 245.933 589.423 247.204 589.423 248.326 589.423 249.306 589.654 250.144 590.116 250.989 590.577 251.643 591.266 252.104 592.183 252.573 593.092 252.808 594.228 252.808 595.592V606H249.622V595.975C249.622 594.775 249.313 593.844 248.695 593.184 248.078 592.516 247.218 592.183 246.117 592.183 245.364 592.183 244.69 592.342 244.093 592.662 243.504 592.982 243.038 593.45 242.698 594.068 242.364 594.679 242.197 595.418 242.197 596.284ZM264.111 606.33C262.499 606.33 261.11 605.986 259.945 605.297 258.788 604.601 257.893 603.624 257.261 602.367 256.636 601.103 256.323 599.622 256.323 597.925 256.323 596.249 256.636 594.771 257.261 593.493 257.893 592.214 258.774 591.217 259.903 590.499 261.039 589.782 262.367 589.423 263.887 589.423 264.81 589.423 265.705 589.576 266.572 589.881 267.438 590.187 268.216 590.666 268.905 591.32 269.594 591.973 270.137 592.822 270.535 593.866 270.933 594.903 271.131 596.163 271.131 597.648V598.777H258.124V596.391H268.01C268.01 595.553 267.84 594.81 267.499 594.164 267.158 593.511 266.678 592.996 266.06 592.619 265.45 592.243 264.732 592.055 263.908 592.055 263.014 592.055 262.232 592.275 261.565 592.715 260.904 593.148 260.393 593.717 260.031 594.42 259.676 595.116 259.498 595.872 259.498 596.689V598.553C259.498 599.647 259.69 600.577 260.073 601.344 260.464 602.112 261.007 602.697 261.703 603.102 262.399 603.5 263.212 603.699 264.143 603.699 264.747 603.699 265.297 603.614 265.794 603.443 266.291 603.266 266.721 603.003 267.083 602.655 267.445 602.307 267.722 601.877 267.914 601.366L270.929 601.909C270.688 602.797 270.254 603.575 269.629 604.242 269.011 604.903 268.234 605.418 267.296 605.787 266.366 606.149 265.304 606.33 264.111 606.33ZM282.605 606V589.636H285.791V606H282.605ZM284.214 587.112C283.66 587.112 283.184 586.927 282.786 586.558 282.396 586.181 282.2 585.734 282.2 585.215 282.2 584.69 282.396 584.242 282.786 583.873 283.184 583.496 283.66 583.308 284.214 583.308 284.768 583.308 285.24 583.496 285.631 583.873 286.028 584.242 286.227 584.69 286.227 585.215 286.227 585.734 286.028 586.181 285.631 586.558 285.24 586.927 284.768 587.112 284.214 587.112ZM293.261 596.284V606H290.076V589.636H293.133V592.3H293.336C293.712 591.433 294.302 590.737 295.104 590.212 295.914 589.686 296.933 589.423 298.162 589.423 299.277 589.423 300.253 589.658 301.092 590.126 301.93 590.588 302.579 591.277 303.041 592.193 303.503 593.109 303.734 594.242 303.734 595.592V606H300.548V595.975C300.548 594.789 300.239 593.862 299.621 593.195 299.003 592.52 298.155 592.183 297.075 592.183 296.337 592.183 295.68 592.342 295.104 592.662 294.536 592.982 294.085 593.45 293.751 594.068 293.425 594.679 293.261 595.418 293.261 596.284ZM315.644 589.636V592.193H306.706V589.636H315.644ZM309.103 585.716H312.288V601.195C312.288 601.813 312.381 602.278 312.565 602.591 312.75 602.896 312.988 603.106 313.279 603.219 313.577 603.326 313.9 603.379 314.248 603.379 314.504 603.379 314.728 603.362 314.92 603.326 315.111 603.29 315.261 603.262 315.367 603.241L315.942 605.872C315.758 605.943 315.495 606.014 315.154 606.085 314.813 606.163 314.387 606.206 313.876 606.213 313.038 606.227 312.256 606.078 311.532 605.766 310.807 605.453 310.222 604.97 309.774 604.317 309.327 603.663 309.103 602.843 309.103 601.856V585.716ZM326.044 606.33C324.432 606.33 323.044 605.986 321.879 605.297 320.721 604.601 319.826 603.624 319.194 602.367 318.569 601.103 318.257 599.622 318.257 597.925 318.257 596.249 318.569 594.771 319.194 593.493 319.826 592.214 320.707 591.217 321.836 590.499 322.973 589.782 324.301 589.423 325.821 589.423 326.744 589.423 327.639 589.576 328.505 589.881 329.372 590.187 330.15 590.666 330.839 591.32 331.527 591.973 332.071 592.822 332.468 593.866 332.866 594.903 333.065 596.163 333.065 597.648V598.777H320.057V596.391H329.944C329.944 595.553 329.773 594.81 329.432 594.164 329.091 593.511 328.612 592.996 327.994 592.619 327.383 592.243 326.666 592.055 325.842 592.055 324.947 592.055 324.166 592.275 323.498 592.715 322.838 593.148 322.326 593.717 321.964 594.42 321.609 595.116 321.432 595.872 321.432 596.689V598.553C321.432 599.647 321.623 600.577 322.007 601.344 322.397 602.112 322.941 602.697 323.637 603.102 324.333 603.5 325.146 603.699 326.076 603.699 326.68 603.699 327.231 603.614 327.728 603.443 328.225 603.266 328.655 603.003 329.017 602.655 329.379 602.307 329.656 601.877 329.848 601.366L332.863 601.909C332.621 602.797 332.188 603.575 331.563 604.242 330.945 604.903 330.167 605.418 329.23 605.787 328.299 606.149 327.238 606.33 326.044 606.33ZM336.599 606V589.636H339.678V592.236H339.849C340.147 591.355 340.672 590.663 341.425 590.158 342.185 589.647 343.045 589.391 344.003 589.391 344.202 589.391 344.437 589.398 344.707 589.413 344.984 589.427 345.2 589.445 345.356 589.466V592.513C345.229 592.477 345.001 592.438 344.675 592.396 344.348 592.346 344.021 592.321 343.695 592.321 342.942 592.321 342.271 592.481 341.681 592.8 341.099 593.113 340.637 593.55 340.296 594.111 339.955 594.665 339.785 595.297 339.785 596.007V606H336.599ZM351.298 596.284V606H348.113V589.636H351.171V592.3H351.373C351.749 591.433 352.339 590.737 353.141 590.212 353.951 589.686 354.97 589.423 356.199 589.423 357.314 589.423 358.291 589.658 359.129 590.126 359.967 590.588 360.617 591.277 361.078 592.193 361.54 593.109 361.771 594.242 361.771 595.592V606H358.585V595.975C358.585 594.789 358.276 593.862 357.658 593.195 357.041 592.52 356.192 592.183 355.112 592.183 354.374 592.183 353.717 592.342 353.141 592.662 352.573 592.982 352.122 593.45 351.788 594.068 351.462 594.679 351.298 595.418 351.298 596.284ZM373.095 606.33C371.483 606.33 370.095 605.986 368.93 605.297 367.772 604.601 366.877 603.624 366.245 602.367 365.62 601.103 365.308 599.622 365.308 597.925 365.308 596.249 365.62 594.771 366.245 593.493 366.877 592.214 367.758 591.217 368.887 590.499 370.024 589.782 371.352 589.423 372.872 589.423 373.795 589.423 374.69 589.576 375.556 589.881 376.423 590.187 377.2 590.666 377.889 591.32 378.578 591.973 379.122 592.822 379.519 593.866 379.917 594.903 380.116 596.163 380.116 597.648V598.777H367.108V596.391H376.994C376.994 595.553 376.824 594.81 376.483 594.164 376.142 593.511 375.663 592.996 375.045 592.619 374.434 592.243 373.717 592.055 372.893 592.055 371.998 592.055 371.217 592.275 370.549 592.715 369.889 593.148 369.377 593.717 369.015 594.42 368.66 595.116 368.482 595.872 368.482 596.689V598.553C368.482 599.647 368.674 600.577 369.058 601.344 369.448 602.112 369.992 602.697 370.688 603.102 371.384 603.5 372.197 603.699 373.127 603.699 373.731 603.699 374.281 603.614 374.778 603.443 375.276 603.266 375.705 603.003 376.068 602.655 376.43 602.307 376.707 601.877 376.899 601.366L379.913 601.909C379.672 602.797 379.239 603.575 378.614 604.242 377.996 604.903 377.218 605.418 376.281 605.787 375.35 606.149 374.288 606.33 373.095 606.33ZM391.289 589.636V592.193H382.35V589.636H391.289ZM384.747 585.716H387.933V601.195C387.933 601.813 388.025 602.278 388.21 602.591 388.394 602.896 388.632 603.106 388.924 603.219 389.222 603.326 389.545 603.379 389.893 603.379 390.149 603.379 390.372 603.362 390.564 603.326 390.756 603.29 390.905 603.262 391.012 603.241L391.587 605.872C391.402 605.943 391.139 606.014 390.799 606.085 390.458 606.163 390.032 606.206 389.52 606.213 388.682 606.227 387.901 606.078 387.176 605.766 386.452 605.453 385.866 604.97 385.419 604.317 384.971 603.663 384.747 602.843 384.747 601.856V585.716Z" fill="#000000"/><rect fill="#e2f1ff" height="315.433" rx="18.3457" width="476.989" x="656.505" y="207.266"/><path d="M656.505 225.612C656.505 215.48 664.719 207.266 674.851 207.266H1115.15C1125.28 207.266 1133.49 215.48 1133.49 225.612V246.174H656.505V225.612Z" fill="#c3dcf4"/><circle cx="680.18" cy="226.72" fill="#3e5fff" r="7.81732"/><circle cx="726.753" cy="226.72" fill="#e2f1ff" r="7.81732"/><circle cx="703.467" cy="226.72" fill="#ffffff" r="7.81732"/><rect fill="#ffffff" height="53.4042" rx="26.7021" width="354.071" x="717.964" y="336.547"/><rect fill="#3e5fff" height="34.3251" rx="17.1626" width="119.97" x="835.015" y="412.214"/><circle cx="749.314" cy="363.25" fill="#e2f1ff" r="7.81732"/><circle cx="777.627" cy="363.25" fill="#e2f1ff" r="7.81732"/><circle cx="805.939" cy="363.25" fill="#e2f1ff" r="7.81732"/><circle cx="1042.68" cy="363.249" fill="#c3dcf4" r="19.263"/><g fill="#000000"><path d="M1051.33 371.116 1046.46 366.249C1047.53 364.997 1048.16 363.377 1048.16 361.598 1048.16 357.646 1044.95 354.444 1041 354.444 1037.05 354.444 1033.88 357.647 1033.88 361.598 1033.88 365.55 1037.08 368.753 1041 368.753 1042.78 368.753 1044.4 368.101 1045.65 367.028L1050.52 371.896C1050.66 372 1050.8 372.056 1050.94 372.056 1051.08 372.056 1051.22 372.002 1051.33 371.894 1051.54 371.681 1051.54 371.33 1051.33 371.116ZM1041.03 367.653C1037.66 367.653 1034.98 364.935 1034.98 361.598 1034.98 358.262 1037.66 355.544 1041.03 355.544 1044.4 355.544 1047.09 358.231 1047.09 361.598 1047.09 364.966 1044.37 367.653 1041.03 367.653Z"/><path d="M834.431 587.016V584.182H851.317V587.016H844.509V606H841.228V587.016H834.431ZM857.978 596.284V606H854.793V584.182H857.935V592.3H858.138C858.521 591.419 859.107 590.719 859.896 590.201 860.684 589.683 861.714 589.423 862.985 589.423 864.107 589.423 865.087 589.654 865.926 590.116 866.771 590.577 867.424 591.266 867.886 592.183 868.354 593.092 868.589 594.228 868.589 595.592V606H865.403V595.975C865.403 594.775 865.095 593.844 864.477 593.184 863.859 592.516 862.999 592.183 861.899 592.183 861.146 592.183 860.471 592.342 859.874 592.662 859.285 592.982 858.82 593.45 858.479 594.068 858.145 594.679 857.978 595.418 857.978 596.284ZM879.892 606.33C878.28 606.33 876.891 605.986 875.727 605.297 874.569 604.601 873.674 603.624 873.042 602.367 872.417 601.103 872.104 599.622 872.104 597.925 872.104 596.249 872.417 594.771 873.042 593.493 873.674 592.214 874.555 591.217 875.684 590.499 876.82 589.782 878.149 589.423 879.668 589.423 880.592 589.423 881.487 589.576 882.353 589.881 883.22 590.187 883.997 590.666 884.686 591.32 885.375 591.973 885.918 592.822 886.316 593.866 886.714 594.903 886.913 596.163 886.913 597.648V598.777H873.905V596.391H883.791C883.791 595.553 883.621 594.81 883.28 594.164 882.939 593.511 882.46 592.996 881.842 592.619 881.231 592.243 880.514 592.055 879.69 592.055 878.795 592.055 878.014 592.275 877.346 592.715 876.685 593.148 876.174 593.717 875.812 594.42 875.457 595.116 875.279 595.872 875.279 596.689V598.553C875.279 599.647 875.471 600.577 875.854 601.344 876.245 602.112 876.788 602.697 877.484 603.102 878.18 603.5 878.994 603.699 879.924 603.699 880.528 603.699 881.078 603.614 881.575 603.443 882.073 603.266 882.502 603.003 882.864 602.655 883.227 602.307 883.504 601.877 883.695 601.366L886.71 601.909C886.469 602.797 886.036 603.575 885.411 604.242 884.793 604.903 884.015 605.418 883.078 605.787 882.147 606.149 881.085 606.33 879.892 606.33ZM901.934 606 897.119 589.636H900.411L903.617 601.653H903.777L906.994 589.636H910.286L913.482 601.6H913.642L916.828 589.636H920.119L915.315 606H912.065L908.742 594.185H908.497L905.173 606H901.934ZM929.697 606.33C928.085 606.33 926.696 605.986 925.531 605.297 924.374 604.601 923.479 603.624 922.847 602.367 922.222 601.103 921.909 599.622 921.909 597.925 921.909 596.249 922.222 594.771 922.847 593.493 923.479 592.214 924.359 591.217 925.489 590.499 926.625 589.782 927.953 589.423 929.473 589.423 930.396 589.423 931.291 589.576 932.158 589.881 933.024 590.187 933.802 590.666 934.491 591.32 935.18 591.973 935.723 592.822 936.121 593.866 936.519 594.903 936.717 596.163 936.717 597.648V598.777H923.71V596.391H933.596C933.596 595.553 933.426 594.81 933.085 594.164 932.744 593.511 932.264 592.996 931.646 592.619 931.036 592.243 930.318 592.055 929.494 592.055 928.6 592.055 927.818 592.275 927.151 592.715 926.49 593.148 925.979 593.717 925.617 594.42 925.261 595.116 925.084 595.872 925.084 596.689V598.553C925.084 599.647 925.276 600.577 925.659 601.344 926.05 602.112 926.593 602.697 927.289 603.102 927.985 603.5 928.798 603.699 929.729 603.699 930.332 603.699 930.883 603.614 931.38 603.443 931.877 603.266 932.307 603.003 932.669 602.655 933.031 602.307 933.308 601.877 933.5 601.366L936.515 601.909C936.274 602.797 935.84 603.575 935.215 604.242 934.597 604.903 933.82 605.418 932.882 605.787 931.952 606.149 930.89 606.33 929.697 606.33ZM940.507 606V584.182H943.693V592.289H943.884C944.069 591.948 944.335 591.554 944.684 591.107 945.032 590.659 945.514 590.268 946.132 589.935 946.75 589.594 947.567 589.423 948.583 589.423 949.904 589.423 951.083 589.757 952.12 590.425 953.157 591.092 953.97 592.055 954.559 593.312 955.156 594.569 955.454 596.082 955.454 597.85 955.454 599.619 955.159 601.135 954.57 602.399 953.98 603.656 953.171 604.626 952.141 605.308 951.111 605.982 949.936 606.32 948.615 606.32 947.62 606.32 946.807 606.153 946.175 605.819 945.55 605.485 945.06 605.094 944.705 604.647 944.35 604.2 944.076 603.802 943.884 603.454H943.618V606H940.507ZM943.629 597.818C943.629 598.969 943.796 599.977 944.13 600.844 944.463 601.71 944.946 602.388 945.578 602.879 946.21 603.362 946.985 603.603 947.901 603.603 948.853 603.603 949.648 603.351 950.287 602.847 950.926 602.335 951.409 601.643 951.736 600.769 952.07 599.896 952.237 598.912 952.237 597.818 952.237 596.739 952.073 595.769 951.747 594.91 951.427 594.05 950.944 593.372 950.298 592.875 949.659 592.378 948.86 592.129 947.901 592.129 946.978 592.129 946.196 592.367 945.557 592.843 944.925 593.319 944.446 593.983 944.119 594.835 943.792 595.687 943.629 596.682 943.629 597.818Z"/><path d="M775.837 745.587C775.837 744.446 776.308 743.305 777.114 742.499 777.92 741.694 779.062 741.224 780.205 741.224 781.347 741.224 782.489 741.694 783.295 742.499 784.102 743.305 784.572 744.446 784.572 745.587 784.572 746.191 784.437 746.727 784.236 747.264 784.034 747.801 783.698 748.271 783.295 748.674 782.892 749.076 782.422 749.412 781.884 749.613 781.347 749.815 780.809 749.949 780.205 749.949 779.6 749.949 779.062 749.815 778.525 749.613 777.987 749.412 777.517 749.076 777.114 748.674 776.711 748.271 776.375 747.801 776.173 747.264 775.904 746.727 775.837 746.123 775.837 745.587ZM776.643 745.587C776.643 746.056 776.711 746.526 776.912 746.929 777.114 747.332 777.315 747.734 777.651 748.07 777.987 748.405 778.39 748.674 778.794 748.875 779.197 749.076 779.667 749.144 780.137 749.144 781.078 749.144 782.019 748.741 782.623 748.07 783.295 747.399 783.631 746.526 783.631 745.519 783.631 744.58 783.228 743.64 782.623 742.969 781.951 742.298 781.078 741.895 780.137 741.895 779.667 741.895 779.197 741.962 778.794 742.164 778.39 742.365 777.987 742.634 777.651 742.969 777.315 743.305 777.047 743.707 776.912 744.11 776.711 744.647 776.643 745.117 776.643 745.587ZM779.533 748.07H778.525V743.103H780.473C781.481 743.103 782.287 743.64 782.287 744.647 782.287 744.983 782.22 745.251 782.019 745.519 781.817 745.788 781.616 745.989 781.28 746.056L782.287 748.07H781.145L780.205 746.258H779.465V748.07H779.533ZM780.406 744.043H779.533V745.251H780.406C780.809 745.251 781.212 745.117 781.212 744.647 781.212 744.177 780.809 744.043 780.406 744.043Z"/><path clip-rule="evenodd" d="M570.974 780.016 553.101 753.238V780.016H545.173V741.224H554.378L571.243 766.593V741.224H579.171V780.016H570.974Z" fill-rule="evenodd"/><path clip-rule="evenodd" d="M597.38 752.969C589.317 752.969 582.867 758.942 582.867 766.862 582.867 774.848 589.25 780.62 597.312 780.62 605.375 780.62 611.826 774.647 611.826 766.661 611.758 758.808 605.308 752.969 597.38 752.969ZM597.312 773.506C593.684 773.506 590.728 770.754 590.728 766.728 590.728 762.701 593.617 760.016 597.245 760.016 600.874 760.016 603.83 762.768 603.83 766.728 603.83 770.687 600.941 773.506 597.312 773.506Z" fill-rule="evenodd"/><path clip-rule="evenodd" d="M631.78 753.507V761.09C630.973 760.956 630.1 760.889 629.294 760.889 625.598 760.889 622.978 763.439 622.978 768.406V780.017H615.385V753.574H622.709V757.466H622.776C624.187 754.446 626.875 753.305 629.63 753.305 630.436 753.238 631.108 753.372 631.78 753.507Z" fill-rule="evenodd"/><path clip-rule="evenodd" d="M653.954 741.158V756.527H653.887C651.132 753.305 647.504 753.037 645.958 753.037 638.366 753.037 633.259 760.017 633.259 766.728 633.259 773.842 638.164 780.487 645.891 780.487 647.705 780.487 651.669 780.218 654.155 776.594H654.223V779.95H661.748V741.158H653.954ZM647.638 773.507C644.01 773.507 641.053 770.755 641.053 766.728 641.053 762.701 644.01 760.017 647.638 760.017 651.266 760.017 654.223 762.769 654.223 766.728 654.155 770.688 651.199 773.507 647.638 773.507Z" fill-rule="evenodd"/><path clip-rule="evenodd" d="M678.141 780.016 664.098 741.224H672.766L682.844 770.754 692.99 741.224H701.523L687.413 780.016H678.141Z" fill-rule="evenodd"/><path clip-rule="evenodd" d="M719.263 741.158H704.817V780.017H712.88V766.326H718.994C727.124 766.326 733.171 762.232 733.171 753.641 733.104 745.386 727.057 741.158 719.263 741.158ZM718.591 758.809H712.813V748.742H718.524C721.883 748.742 725.041 750.017 725.041 753.775 725.041 757.467 721.749 758.809 718.591 758.809Z" fill-rule="evenodd"/><path clip-rule="evenodd" d="M763.003 780.016 745.131 753.238V780.016H737.202V741.224H746.407L763.272 766.593V741.224H771.2V780.016H763.003Z" fill-rule="evenodd"/></g><path clip-rule="evenodd" d="M425.036 798.473C418.788 789.883 415.428 779.48 415.428 768.876 415.428 741.023 438.004 718.473 465.821 718.473 493.638 718.473 516.213 741.023 516.213 768.876 516.213 779.48 512.854 789.883 506.605 798.473L482.417 759.144 480.065 763.104 482.417 774.111 465.821 745.654 455.541 763.037 457.96 774.111 449.225 759.211 425.036 798.473Z" fill="#3e5fff" fill-rule="evenodd"/></svg>